<svg id="Group_1499" data-name="Group 1499" xmlns="http://www.w3.org/2000/svg" width="13.543" height="18.493" viewBox="0 0 13.543 18.493">
  <path id="Path_3861" data-name="Path 3861" d="M0,6.31A6.261,6.261,0,0,1,3.885.657a6.584,6.584,0,0,1,7.132.813,6.093,6.093,0,0,1,2.327,6.584,16.643,16.643,0,0,1-2.918,5.771c-1,1.436-2.055,2.836-3.1,4.254-.347.479-.741.515-1.051.072-1.558-2.213-3.162-4.407-4.636-6.674A9.668,9.668,0,0,1,0,6.31ZM6.785,16.949a2.136,2.136,0,0,1,.15-.217C8,15.26,9.084,13.815,10.106,12.316a13.425,13.425,0,0,0,2.2-4.705A5.374,5.374,0,0,0,9.112,1.578a5.762,5.762,0,0,0-6.9,1.77,5.515,5.515,0,0,0-.5,5.762C2.89,11.982,4.917,14.357,6.785,16.949Z" transform="translate(0 0.033)" fill="#262626"/>
  <path id="Path_3862" data-name="Path 3862" d="M39.468,36.5A3.234,3.234,0,0,1,42.7,39.751a3.251,3.251,0,0,1-6.5-.045A3.226,3.226,0,0,1,39.468,36.5Zm0,1.084a2.151,2.151,0,0,0-2.186,2.122,2.163,2.163,0,1,0,4.326.045A2.134,2.134,0,0,0,39.468,37.583Z" transform="translate(-32.674 -33.2)" fill="#262626"/>
</svg>
